Run_40002
nRows=4
nColumns=164

# SIMM Motion File Header:
name Run_40002
datacolumns 164
datarows 4
otherdata 1
range 4.60000000 4.63000000
endheader
time	pelvis_tilt	pelvis_list	pelvis_rotation	pelvis_tx	pelvis_ty	pelvis_tz	hip_flexion_r	hip_adduction_r	hip_rotation_r	knee_angle_r	ankle_angle_r	hip_flexion_l	hip_adduction_l	hip_rotation_l	knee_angle_l	ankle_angle_l	lumbar_extension	lumbar_bending	lumbar_rotation	arm_flex_r	arm_add_r	arm_rot_r	elbow_flex_r	pro_sup_r	arm_flex_l	arm_add_l	arm_rot_l	elbow_flex_l	pro_sup_l	subtalar_angle_r	mtp_angle_r	subtalar_angle_l	mtp_angle_l	wrist_flex_r	wrist_dev_r	wrist_flex_l	wrist_dev_l	LASI_tx	LASI_ty	LASI_tz	RASI_tx	RASI_ty	RASI_tz	LPSI_tx	LPSI_ty	LPSI_tz	RPSI_tx	RPSI_ty	RPSI_tz	RTH1_tx	RTH1_ty	RTH1_tz	RTH2_tx	RTH2_ty	RTH2_tz	RTH3_tx	RTH3_ty	RTH3_tz	LTH1_tx	LTH1_ty	LTH1_tz	LTH2_tx	LTH2_ty	LTH2_tz	LTH3_tx	LTH3_ty	LTH3_tz	RTB1_tx	RTB1_ty	RTB1_tz	RTB2_tx	RTB2_ty	RTB2_tz	RTB3_tx	RTB3_ty	RTB3_tz	LTB1_tx	LTB1_ty	LTB1_tz	LTB2_tx	LTB2_ty	LTB2_tz	LTB3_tx	LTB3_ty	LTB3_tz	RCAL_tx	RCAL_ty	RCAL_tz	RTOE_tx	RTOE_ty	RTOE_tz	RMT5_tx	RMT5_ty	RMT5_tz	LCAL_tx	LCAL_ty	LCAL_tz	LTOE_tx	LTOE_ty	LTOE_tz	LMT5_tx	LMT5_ty	LMT5_tz	LACR_tx	LACR_ty	LACR_tz	RACR_tx	RACR_ty	RACR_tz	CLAV_tx	CLAV_ty	CLAV_tz	C7_tx	C7_ty	C7_tz	RUA1_tx	RUA1_ty	RUA1_tz	RUA2_tx	RUA2_ty	RUA2_tz	RUA3_tx	RUA3_ty	RUA3_tz	RLEL_tx	RLEL_ty	RLEL_tz	RMEL_tx	RMEL_ty	RMEL_tz	LUA1_tx	LUA1_ty	LUA1_tz	LUA2_tx	LUA2_ty	LUA2_tz	LUA3_tx	LUA3_ty	LUA3_tz	LLEL_tx	LLEL_ty	LLEL_tz	LMEL_tx	LMEL_ty	LMEL_tz	RFAsuperior_tx	RFAsuperior_ty	RFAsuperior_tz	RFAradius_tx	RFAradius_ty	RFAradius_tz	RFAulna_tx	RFAulna_ty	RFAulna_tz	LFAsuperior_tx	LFAsuperior_ty	LFAsuperior_tz	LFAradius_tx	LFAradius_ty	LFAradius_tz	LFAulna_tx	LFAulna_ty	LFAulna_tz
      4.60000000	     -0.40656276	      7.45842844	     -1.63122612	      1.18246339	      0.93737213	     -0.30350481	     10.63811026	     -6.30890794	      1.04453009	   -113.54399746	      4.93627307	     21.82724085	     17.17146869	      1.10348695	    -41.38707628	     19.69671655	    -18.27791754	     -9.15182334	      0.89998448	    -25.18386870	    -12.48301943	     -0.84745090	    106.19041620	     98.56021473	    -19.85073810	    -17.02011032	     -9.30642008	    122.25025078	     90.77868787	      0.00000000	      0.00000000	      0.00000000	      0.00000000	      0.00000000	      0.00000000	      0.00000000	      0.00000000	      1.19890851	      0.96841525	     -0.41996210	      1.18527934	      0.94512408	     -0.16203369	      1.02444254	      1.01918349	     -0.33857035	      1.01995707	      1.00827224	     -0.24667930	      1.14552753	      0.76984242	     -0.12323425	      1.19339077	      0.67337244	     -0.12795903	      1.14466723	      0.53839264	     -0.13895142	      1.13825646	      0.83108549	     -0.48737477	      1.23285294	      0.72157122	     -0.47296349	      1.20220411	      0.59175314	     -0.44420317	      1.01610866	      0.41040515	     -0.21649596	      0.92232844	      0.47126539	     -0.17116558	      0.84733965	      0.45905068	     -0.23386273	      1.24140873	      0.32190080	     -0.34551540	      1.19088670	      0.26983438	     -0.38525665	      1.17630516	      0.20019121	     -0.31930509	      0.76365765	      0.59193817	     -0.23126984	      0.71760854	      0.36065276	     -0.24677877	      0.69635900	      0.37913683	     -0.17198635	      1.01437449	      0.10583473	     -0.29675140	      1.27644800	      0.05743376	     -0.26668275	      1.22492605	      0.05523228	     -0.35244612	      1.22565397	      1.46595922	     -0.48367578	      1.23765891	      1.45682496	     -0.13669481	      1.27998477	      1.39898114	     -0.28178851	      1.17246365	      1.50399930	     -0.31008639	      1.16259939	      1.33330119	     -0.05903195	      1.09112520	      1.33914316	     -0.05244896	      1.09249137	      1.26583935	     -0.03850258	      1.04642281	      1.20160063	     -0.01501713	      1.00180141	      1.20646794	     -0.09663607	      1.14999977	      1.35952256	     -0.55797127	      1.06030999	      1.32808646	     -0.53818707	      1.07631663	      1.25505463	     -0.57996245	      1.04548893	      1.19749496	     -0.60049008	      1.01580615	      1.17665845	     -0.51600182	      1.12593629	      1.15867232	     -0.04021739	      1.24598568	      1.08034845	     -0.12613393	      1.21071050	      1.02752653	     -0.08934441	      1.12718489	      1.16721756	     -0.59558912	      1.28561998	      1.15524787	     -0.52294286	      1.27304584	      1.08809794	     -0.54908636
      4.61000000	     -0.56966925	      7.19439806	     -2.35601470	      1.18016685	      0.93673460	     -0.30190586	     15.25345296	     -5.61186408	      2.26489589	   -115.46479783	      6.41381029	     19.44084596	     17.08359033	      1.63708601	    -41.02157439	     22.05434457	    -18.15349569	     -8.87283049	     -0.95554282	    -26.02288581	    -12.18409146	     -0.83405765	    105.83180803	     97.74734214	    -17.97178576	    -16.56621551	    -10.11346697	    121.46278122	     92.01301526	      0.00000000	      0.00000000	      0.00000000	      0.00000000	      0.00000000	      0.00000000	      0.00000000	      0.00000000	      1.19765850	      0.96769920	     -0.41792605	      1.18146594	      0.94530938	     -0.16097997	      1.02363895	      1.02017804	     -0.33984098	      1.01669842	      1.00908289	     -0.24780989	      1.14772328	      0.77114828	     -0.12133056	      1.20405440	      0.67867011	     -0.12520130	      1.16715721	      0.54212309	     -0.13711946	      1.13513330	      0.82774671	     -0.48652899	      1.22543039	      0.71380427	     -0.46966439	      1.18784501	      0.58639133	     -0.44200288	      1.04537974	      0.41070950	     -0.21536333	      0.95018140	      0.46649459	     -0.17024314	      0.87506389	      0.45216025	     -0.23211628	      1.21488065	      0.31521000	     -0.34408047	      1.16261183	      0.26517367	     -0.38315181	      1.14385965	      0.19727097	     -0.31806423	      0.78302360	      0.58086408	     -0.22890030	      0.75303274	      0.34697309	     -0.24505328	      0.73188122	      0.36333545	     -0.16981374	      0.97745451	      0.10798651	     -0.29697519	      1.24356564	      0.05723862	     -0.26598633	      1.19211809	      0.05528382	     -0.35202172	      1.23177474	      1.46432055	     -0.48258384	      1.23002553	      1.45634749	     -0.13543622	      1.27783626	      1.39815252	     -0.27894632	      1.17075458	      1.50188175	     -0.31095778	      1.14949414	      1.33509654	     -0.05947376	      1.07767875	      1.34247309	     -0.05714975	      1.07663012	      1.26984288	     -0.04166432	      1.02839506	      1.20676256	     -0.01948825	      0.98952674	      1.21097405	     -0.10371523	      1.15976763	      1.35594774	     -0.55746523	      1.07116554	      1.32077300	     -0.53918113	      1.09133778	      1.24847466	     -0.58001049	      1.06414478	      1.18949425	     -0.60090600	      1.03091713	      1.16803632	     -0.51785924	      1.10734710	      1.16052129	     -0.03955347	      1.23097557	      1.08043357	     -0.11971240	      1.19225738	      1.02837000	     -0.08556290	      1.14792775	      1.16207983	     -0.59290630	      1.30244391	      1.15186161	     -0.51624958	      1.29193296	      1.08478752	     -0.54416181
      4.62000000	     -0.61760497	      6.65718120	     -2.97651574	      1.17861449	      0.93785701	     -0.30053074	     19.49668326	     -4.48421642	      3.19174859	   -116.32557646	      7.64205126	     16.63653749	     16.73610198	      2.30991297	    -40.43120228	     23.65329630	    -18.03419405	     -8.24489860	     -2.99236369	    -27.10373636	    -12.40187555	     -0.51617933	    106.52029630	     96.79802160	    -16.82697609	    -15.82468728	    -11.47259306	    121.74182496	     93.25468090	      0.00000000	      0.00000000	      0.00000000	      0.00000000	      0.00000000	      0.00000000	      0.00000000	      0.00000000	      1.19676180	      0.96748538	     -0.41649362	      1.17852529	      0.94800580	     -0.15968855	      1.02282785	      1.02198277	     -0.34097883	      1.01399297	      1.01108920	     -0.24886411	      1.15070547	      0.77477659	     -0.11930572	      1.21435345	      0.68720694	     -0.12344193	      1.18899362	      0.54936031	     -0.13617512	      1.13112684	      0.82636090	     -0.48559501	      1.21878866	      0.70813974	     -0.46668960	      1.17405802	      0.58297758	     -0.44104125	      1.07476291	      0.41314508	     -0.21435687	      0.97723149	      0.46190382	     -0.17000324	      0.90249817	      0.44417140	     -0.23122125	      1.18725644	      0.31069612	     -0.34280898	      1.13418270	      0.26227103	     -0.38185783	      1.11124240	      0.19593942	     -0.31750005	      0.80125378	      0.56666915	     -0.22828199	      0.78961845	      0.33102086	     -0.24257151	      0.76804428	      0.34617433	     -0.16722250	      0.94113621	      0.11064459	     -0.29754354	      1.20757102	      0.05658290	     -0.26490806	      1.15613564	      0.05538817	     -0.35145291	      1.23825931	      1.46467715	     -0.48096649	      1.22159166	      1.45820960	     -0.13436147	      1.27593872	      1.39926022	     -0.27581008	      1.16910390	      1.50165815	     -0.31223559	      1.13528427	      1.34030455	     -0.05943040	      1.06353453	      1.34890416	     -0.06191777	      1.06028768	      1.27687553	     -0.04438479	      1.00996773	      1.21487939	     -0.02350439	      0.97649029	      1.21860982	     -0.10974631	      1.16850725	      1.35530555	     -0.55647137	      1.08104549	      1.31674604	     -0.53965937	      1.10490250	      1.24509502	     -0.57885396	      1.07978768	      1.18535404	     -0.59965836	      1.04550584	      1.16398474	     -0.51673487	      1.08816172	      1.16626628	     -0.03843444	      1.21584946	      1.08652007	     -0.11429932	      1.17492695	      1.03473345	     -0.08330784	      1.16490056	      1.16051262	     -0.58942894	      1.31743027	      1.15442241	     -0.50856723	      1.30984200	      1.08757027	     -0.53761604
      4.63000000	     -0.63685343	      5.88594648	     -3.37952911	      1.17790470	      0.94060937	     -0.29953754	     23.36414944	     -3.09972814	      3.67346186	   -116.16636554	      8.83503788	     13.34299513	     16.17645609	      3.24836823	    -39.29928964	     24.46118614	    -17.86524936	     -7.30908046	     -5.15449900	    -28.41159146	    -12.97434251	     -0.19181069	    108.00633438	     96.33939103	    -16.19893172	    -14.95354983	    -12.96332065	    122.94097783	     94.42088374	      0.00000000	      0.00000000	      0.00000000	      0.00000000	      0.00000000	      0.00000000	      0.00000000	      0.00000000	      1.19637704	      0.96792756	     -0.41629756	      1.17652868	      0.95277133	     -0.15828050	      1.02227570	      1.02439716	     -0.34176244	      1.01235988	      1.01414690	     -0.24957892	      1.15449393	      0.78084063	     -0.11722991	      1.22470997	      0.69868929	     -0.12237161	      1.20939300	      0.56009638	     -0.13583896	      1.12680197	      0.82674801	     -0.48432235	      1.21137107	      0.70530366	     -0.46417863	      1.15975022	      0.58122536	     -0.44072495	      1.10419826	      0.41720842	     -0.21384962	      1.00338923	      0.45781532	     -0.17028205	      0.92996316	      0.43530518	     -0.23140562	      1.15824602	      0.30773381	     -0.34154142	      1.10461065	      0.26081388	     -0.38125869	      1.07807695	      0.19556663	     -0.31724586	      0.81861250	      0.54941277	     -0.22940867	      0.82792446	      0.31347040	     -0.23946020	      0.80570390	      0.32807764	     -0.16410463	      0.90515620	      0.11406826	     -0.29825639	      1.16854977	      0.05582129	     -0.26351791	      1.11717456	      0.05534795	     -0.35075141	      1.24464597	      1.46703160	     -0.47868757	      1.21293741	      1.46223959	     -0.13354739	      1.27409327	      1.40219435	     -0.27228965	      1.16809607	      1.50394197	     -0.31340622	      1.12076052	      1.34859186	     -0.05938580	      1.04959626	      1.35804527	     -0.06709094	      1.04428272	      1.28652327	     -0.04697302	      0.99202075	      1.22538204	     -0.02751821	      0.96295089	      1.22866073	     -0.11525738	      1.17769666	      1.35662761	     -0.55516407	      1.09043421	      1.31619333	     -0.54067511	      1.11697722	      1.24450509	     -0.57709481	      1.09296694	      1.18411504	     -0.59752673	      1.05908531	      1.16355251	     -0.51360890	      1.06989677	      1.17651441	     -0.03827083	      1.20107553	      1.09730192	     -0.10993543	      1.15915414	      1.04560255	     -0.08140439	      1.17852696	      1.16185403	     -0.58541883	      1.33013281	      1.16253206	     -0.49994482	      1.32642953	      1.09586338	     -0.52950430
